<?xml version="1.0" encoding="UTF-8" standalone="no"?>
<!-- Created with Inkscape (http://www.inkscape.org/) -->

<svg
   xmlns:dc="http://purl.org/dc/elements/1.1/"
   xmlns:cc="http://creativecommons.org/ns#"
   xmlns:rdf="http://www.w3.org/1999/02/22-rdf-syntax-ns#"
   xmlns:svg="http://www.w3.org/2000/svg"
   xmlns="http://www.w3.org/2000/svg"
   xmlns:sodipodi="http://sodipodi.sourceforge.net/DTD/sodipodi-0.dtd"
   xmlns:inkscape="http://www.inkscape.org/namespaces/inkscape"
   id="svg3336"
   version="1.1"
   inkscape:version="0.91 r13725"
   xml:space="preserve"
   width="354.32501"
   height="354.32501"
   viewBox="0 0 354.32501 354.32501"
   sodipodi:docname="WildcardMatch.svg"><metadata
     id="metadata3342"><rdf:RDF><cc:Work
         rdf:about=""><dc:format>image/svg+xml</dc:format><dc:type
           rdf:resource="http://purl.org/dc/dcmitype/StillImage" /><dc:title /></cc:Work></rdf:RDF></metadata><defs
     id="defs3340"><clipPath
       clipPathUnits="userSpaceOnUse"
       id="clipPath3350"><path
         d="m 0,283.46 283.46,0 L 283.46,0 0,0 0,283.46 Z"
         id="path3352"
         inkscape:connector-curvature="0" /></clipPath></defs><sodipodi:namedview
     pagecolor="#ffffff"
     bordercolor="#666666"
     borderopacity="1"
     objecttolerance="10"
     gridtolerance="10"
     guidetolerance="10"
     inkscape:pageopacity="0"
     inkscape:pageshadow="2"
     inkscape:window-width="1920"
     inkscape:window-height="1030"
     id="namedview3338"
     showgrid="false"
     inkscape:zoom="0.72124892"
     inkscape:cx="-81.675577"
     inkscape:cy="403.80921"
     inkscape:window-x="-8"
     inkscape:window-y="-8"
     inkscape:window-maximized="1"
     inkscape:current-layer="layer1" /><g
     id="g3344"
     inkscape:groupmode="layer"
     inkscape:label="Parenthesis"
     transform="matrix(1.25,0,0,-1.25,0,354.325)"><g
       id="g3346"
       transform="matrix(0,1,-1,0,283.46,0)"><g
         id="g3348"
         clip-path="url(#clipPath3350)"><g
           id="g3354"
           transform="translate(215.4285,0)"><path
             d="m 0,0 -147.397,0 c -37.417,0 -68.031,30.614 -68.031,68.031 l 0,147.397 c 0,37.418 30.614,68.032 68.031,68.032 L 0,283.46 c 37.417,0 68.031,-30.614 68.031,-68.032 l 0,-147.397 C 68.031,30.614 37.417,0 0,0"
             style="fill:#ffffff;fill-opacity:1;fill-rule:nonzero;stroke:none"
             id="path3356"
             inkscape:connector-curvature="0" /></g><g
           id="g3358"
           transform="translate(212.9304,37.7131)"><path
             d="m 0,0 -142.227,0 c -14.685,0.029 -27.07,9.785 -31.062,23.163 l -33.834,0 c 4.511,-31.809 31.827,-56.29 64.896,-56.29 l 142.227,0 c 33.072,0 60.385,24.481 64.883,56.29 l -33.82,0 C 27.063,9.785 14.682,0.029 0,0 m -142.227,207.059 142.227,0 c 14.685,-0.021 27.069,-9.784 31.066,-23.176 l 33.832,0 C 60.391,215.713 33.076,240.195 0,240.195 l -142.227,0 c -33.074,0 -60.394,-24.463 -64.898,-56.312 l 33.833,0 c 3.989,13.392 16.376,23.155 31.065,23.176"
             style="fill:#44aa00;fill-opacity:1;fill-rule:nonzero;stroke:none"
             id="path3360"
             inkscape:connector-curvature="0" /></g></g></g><text
       transform="matrix(1,0,0,-1,60.041,69.9912)"
       style="font-variant:normal;font-weight:900;font-stretch:normal;font-size:154.22929382px;font-family:'Blackoak Std';-inkscape-font-specification:BlackoakStd;writing-mode:lr-tb;fill:#ffffff;fill-opacity:1;fill-rule:nonzero;stroke:none"
       id="text3378"><tspan
         x="0"
         y="0"
         id="tspan3380">1</tspan></text>
</g><g
     inkscape:groupmode="layer"
     id="layer1"
     inkscape:label="Asterisk"><path
       inkscape:connector-curvature="0"
       d="m 44.911145,164.86276 14.990203,-46.52131 93.042592,30.49731 0,-97.694732 48.58891,0 0,97.694732 93.04261,-30.49731 14.99019,46.52131 -93.0426,29.98039 57.37627,79.0862 -39.28465,28.42969 -57.37627,-79.08621 -57.37627,79.08621 -39.28465,-28.42969 57.37627,-79.0862 z"
       id="path4215" /></g></svg>