<?xml version="1.0" encoding="utf-8"?>
<!-- Generator: Adobe Illustrator 18.1.1, SVG Export Plug-In . SVG Version: 6.00 Build 0)  -->
<svg version="1.1" xmlns="http://www.w3.org/2000/svg" xmlns:xlink="http://www.w3.org/1999/xlink" x="0px" y="0px" width="354.3px"
	 height="354.3px" viewBox="-120 243.6 354.3 354.3" enable-background="new -120 243.6 354.3 354.3" xml:space="preserve">
<g id="Calque_2">
	<rect x="-119.9" y="243.6" display="none" fill="#C64D9B" stroke="#EC2024" stroke-miterlimit="10" width="354.3" height="354.3"/>
	<ellipse fill="#FFFFFF" cx="57.1" cy="420.8" rx="177.6" ry="176"/>
	<g>
		<path fill="#44A948" d="M57.7,559.8c-18.9,0-36.9-3.8-53.3-10.7l-12.1,29.4c20.2,8.4,42.3,13.1,65.4,13.1
			c59.3,0,111.5-30.3,142.2-76.3h-40.5C134,542.6,97.9,559.8,57.7,559.8z"/>
		<path fill="#44A948" d="M57.7,280c18.9,0,36.9,3.8,53.3,10.7l12.1-29.4c-20.2-8.4-42.2-13.1-65.4-13.1
			c-59.3,0-111.5,30.3-142.2,76.3h40.5C-18.5,297.2,17.6,280,57.7,280z"/>
	</g>
	<g display="none">
		<path display="inline" fill="#F58B1F" d="M57.7,559.8c-18.9,0-36.9-3.8-53.3-10.7l-12.1,29.4c20.2,8.4,42.3,13.1,65.4,13.1
			c59.3,0,111.5-30.3,142.2-76.3h-40.5C134,542.6,97.9,559.8,57.7,559.8z"/>
		<path display="inline" fill="#F58B1F" d="M57.7,280c18.9,0,36.9,3.8,53.3,10.7l12.1-29.4c-20.2-8.4-42.2-13.1-65.4-13.1
			c-59.3,0-111.5,30.3-142.2,76.3h40.5C-18.5,297.2,17.6,280,57.7,280z"/>
	</g>
</g>
<g id="svg3336" xmlns:cc="http://creativecommons.org/ns#" xmlns:rdf="http://www.w3.org/1999/02/22-rdf-syntax-ns#" xmlns:dc="http://purl.org/dc/elements/1.1/" xmlns:inkscape="http://www.inkscape.org/namespaces/inkscape" xmlns:sodipodi="http://sodipodi.sourceforge.net/DTD/sodipodi-0.dtd" xmlns:svg="http://www.w3.org/2000/svg" inkscape:version="0.91 r13725" sodipodi:docname="WildcardMatch.svg">
	
		<sodipodi:namedview  id="namedview3338" pagecolor="#ffffff" bordercolor="#666666" inkscape:cy="403.80921" objecttolerance="10" inkscape:zoom="0.72124892" showgrid="false" gridtolerance="10" guidetolerance="10" borderopacity="1" inkscape:cx="-81.675577" inkscape:current-layer="layer1" inkscape:window-maximized="1" inkscape:window-y="-8" inkscape:window-x="-8" inkscape:window-width="1920" inkscape:pageshadow="2" inkscape:pageopacity="0" inkscape:window-height="1030">
		</sodipodi:namedview>
	
		<g id="g3344" transform="matrix(1.25,0,0,-1.25,0,354.325)" inkscape:label="Parenthesis" inkscape:groupmode="layer" display="none">
		<g id="g3346" transform="matrix(0,1,-1,0,283.46,0)" display="inline">
			<g>
				<defs>
					<rect id="SVGID_1_" x="-230.3" y="60.6" width="354.3" height="354.3"/>
				</defs>
				<clipPath id="SVGID_2_">
					<use xlink:href="#SVGID_1_"  overflow="visible"/>
				</clipPath>
				<g id="g3348" clip-path="url(#SVGID_2_)">
					<g id="g3354" transform="translate(215.4285,0)">
						<path id="path3356" inkscape:connector-curvature="0" fill="#FFFFFF" d="M-194.9,96h-147.4c-37.4,0-68,30.6-68,68v147.4
							c0,37.4,30.6,68,68,68l147.4,0c37.4,0,68-30.6,68-68V164C-126.8,126.6-157.4,96-194.9,96"/>
					</g>
					<g id="g3358" transform="translate(212.9304,37.7131)">
						<path id="path3360" inkscape:connector-curvature="0" fill="#44AA00" d="M-194.9,96h-142.2c-14.7,0-27.1,9.8-31.1,23.2H-402
							c4.5-31.8,31.8-56.3,64.9-56.3h142.2c33.1,0,60.4,24.5,64.9,56.3h-33.8C-167.8,105.8-180.2,96-194.9,96 M-337.1,303.1h142.2
							c14.7,0,27.1-9.8,31.1-23.2h33.8c-4.5,31.8-31.8,56.3-64.9,56.3h-142.2c-33.1,0-60.4-24.5-64.9-56.3h33.8
							C-364.2,293.3-351.8,303-337.1,303.1"/>
					</g>
				</g>
			</g>
		</g>
		
			<text transform="matrix(0.8 0 0 -0.8 -35.9589 -124.861)" display="inline" fill="#FFFFFF" font-family="'Arial-Black'" font-size="192.7866">1</text>
	</g>
	<g id="layer1" inkscape:label="Asterisk" inkscape:groupmode="layer">
		<path id="path4215" inkscape:connector-curvature="0" d="M-75.1,408.4l15-46.5l93,30.5v-97.7h48.6v97.7l93-30.5l15,46.5l-93,30
			l57.4,79.1l-39.3,28.4l-57.4-79.1l-57.4,79.1l-39.3-28.4L18,438.4L-75.1,408.4z"/>
	</g>
</g>
</svg>
